<?xml version="1.0" standalone="no"?>
<!DOCTYPE svg PUBLIC "-//W3C//DTD SVG 20010904//EN"
 "http://www.w3.org/TR/2001/REC-SVG-20010904/DTD/svg10.dtd">
<svg version="1.0" xmlns="http://www.w3.org/2000/svg"
 width="300.000000pt" height="300.000000pt" viewBox="0 0 300.000000 300.000000"
 preserveAspectRatio="xMidYMid meet">
<metadata>
Created by potrace 1.11, written by Peter Selinger 2001-2013
</metadata>
<g transform="translate(0.000000,300.000000) scale(0.100000,-0.100000)"
fill="#000000" stroke="none">
<path d="M1447 2884 c-1 -1 -40 -5 -87 -8 -47 -3 -100 -10 -118 -15 -18 -5
-35 -10 -37 -10 -3 -1 -6 -1 -7 -2 -10 -3 -46 -11 -63 -13 -11 -2 -21 -5 -22
-6 -2 -1 -6 -3 -10 -4 -30 -8 -114 -37 -145 -50 -21 -9 -41 -16 -44 -15 -4 0
-10 -3 -13 -8 -3 -5 -22 -17 -42 -26 -52 -24 -211 -129 -242 -161 -14 -14 -28
-26 -31 -26 -13 0 -147 -147 -215 -235 -86 -114 -174 -306 -217 -475 -18 -75
-18 -83 6 -77 21 5 25 -7 14 -37 -4 -11 -19 -16 -53 -16 l-46 0 0 -120 c0 -66
4 -120 8 -120 5 0 5 -5 1 -11 -11 -19 -11 -149 1 -150 5 -1 26 -3 45 -4 19 -1
43 -3 52 -4 29 -2 17 -46 -13 -46 -19 0 -24 -5 -23 -25 2 -32 9 -63 28 -125 8
-27 16 -54 16 -60 1 -5 6 -16 12 -23 6 -6 8 -12 5 -12 -3 0 17 -45 44 -101 54
-109 126 -224 159 -254 11 -10 20 -22 20 -26 0 -17 165 -176 240 -231 133 -99
339 -201 450 -222 3 -1 11 -5 18 -9 6 -5 12 -6 12 -3 0 3 11 1 24 -4 13 -5 44
-12 67 -16 24 -3 58 -8 74 -11 46 -7 323 -7 380 1 68 9 247 55 262 68 7 6 13
8 13 5 0 -10 161 61 171 76 3 5 9 8 13 8 9 -2 100 52 104 61 2 4 8 8 13 8 5 0
28 15 51 33 155 118 269 245 366 405 50 82 122 241 125 274 1 10 5 18 10 18 4
0 5 5 2 10 -4 6 -1 18 6 26 6 8 9 17 6 21 -4 3 -3 11 2 17 5 6 12 30 16 53 5
37 4 42 -13 38 -25 -4 -39 5 -44 30 -3 17 3 19 62 20 l64 0 1 54 c0 29 -3 55
-8 58 -4 2 -4 9 -1 15 11 17 10 269 -1 276 -5 3 -26 5 -45 3 -30 -2 -38 2 -48
23 -11 24 -10 26 13 26 23 0 25 3 20 33 -3 17 -11 48 -17 67 -6 19 -12 42 -14
50 -3 32 -66 190 -75 190 -5 0 -9 7 -9 16 0 38 -120 218 -213 318 -16 17 -32
35 -35 41 -15 22 -160 144 -217 182 -229 151 -475 229 -758 237 -37 2 -68 2
-70 0z"/>
</g>
</svg>
